# xmcd
#
# Track frame offsets: 
#        150
#        16738
#        25421
#        45548
#        63117
#        80337
#        97486
#        108482
#        119568
#        138284
#        155090
#        168553
#        182976
#        197907
#
# Disc length: 2834 seconds
#
# Revision: 0
# Processed by: cddbd v1.5.2PL0 Copyright (c) Steve Scherf et al.
# Submitted via: ExactAudioCopy v0.99pb3
#
DISCID=c40b100e
DTITLE=O Melhor Do Globo Rural - O Melhor Do Globo Rural - Disc 4
DYEAR=2007
DGENRE=Sertanejo
TTITLE0=Romaria  - Inezita Barroso E Roberto Corrêa 
TTITLE1=Felicidade  - Rolando Boldrin 
TTITLE2=Os Três Boiadeiros  - Lourenço and Lourival 
TTITLE3=Quem Será Seu Outro Amor  - Chico Rey and Paraná 
TTITLE4=Canção Para Um Mundo Melhor  - Léo Canhoto and Robertinho 
TTITLE5=Ausência  - Chrystian and Ralf 
TTITLE6=Lampião De Gás  - Inezita Barroso E Roberto Corrêa 
TTITLE7=Garanhão Da Madrugada  - Teodoro and Sampaio 
TTITLE8=Chapéu De Praia  - Rolando Boldrin  - Ranchinho 
TTITLE9=Como Eu Chorei  - Lourenço and Lourival 
TTITLE10=Amor Rebelde  - Chico Rey and Paraná 
TTITLE11=Amargurado  - Chrystian and Ralf 
TTITLE12=A Bailarina  - João Mineiro and Mariano 
TTITLE13=Te Amo Demais  - Rouxinol and Sabiá 
EXTD=
EXTT0=
EXTT1=
EXTT2=
EXTT3=
EXTT4=
EXTT5=
EXTT6=
EXTT7=
EXTT8=
EXTT9=
EXTT10=
EXTT11=
EXTT12=
EXTT13=
PLAYORDER=
